<svg width="16" height="17" viewBox="0 0 16 17" fill="none" xmlns="http://www.w3.org/2000/svg">
<path d="M1.23999 1.49995V5.92101M1.23999 5.92101H5.66104M1.23999 5.92101L3.1855 4.17518C4.20308 3.15939 5.52326 2.50179 6.9471 2.30148C8.37095 2.10117 9.82133 2.36899 11.0797 3.06459C12.3381 3.76019 13.3363 4.84589 13.924 6.1581C14.5116 7.47031 14.6569 8.93794 14.3378 10.3399C14.0188 11.7418 13.2527 13.0021 12.1551 13.9308C11.0574 14.8595 9.68766 15.4064 8.25217 15.489C6.81668 15.5716 5.39321 15.1855 4.19626 14.3888C2.99931 13.5922 2.09371 12.4281 1.61591 11.072" stroke="white" stroke-width="2" stroke-linecap="round" stroke-linejoin="round"/>
</svg>
